<?xml version="1.0" encoding="UTF-8" standalone="no"?>
<!-- Created with Inkscape (http://www.inkscape.org/) -->

<svg
   xmlns:dc="http://purl.org/dc/elements/1.1/"
   xmlns:cc="http://creativecommons.org/ns#"
   xmlns:rdf="http://www.w3.org/1999/02/22-rdf-syntax-ns#"
   xmlns:svg="http://www.w3.org/2000/svg"
   xmlns="http://www.w3.org/2000/svg"
   xmlns:xlink="http://www.w3.org/1999/xlink"
   xmlns:inkscape="http://www.inkscape.org/namespaces/inkscape"
   version="1.2"
   width="200"
   height="200"
   id="svg2985">
  <title
     id="title3282">FC Chelsea Logo</title>
  <metadata
     id="metadata2991">
    <rdf:RDF>
      <cc:Work
         rdf:about="">
        <dc:format>image/svg+xml</dc:format>
        <dc:type
           rdf:resource="http://purl.org/dc/dcmitype/StillImage" />
        <dc:title>FC Chelsea Logo</dc:title>
        <dc:date>20.09.2011</dc:date>
        <dc:rights>
          <cc:Agent>
            <dc:title>FC Chelsea</dc:title>
          </cc:Agent>
        </dc:rights>
        <cc:license
           rdf:resource="" />
      </cc:Work>
    </rdf:RDF>
  </metadata>
  <defs
     id="defs2989">
    <inkscape:path-effect
       effect="bend_path"
       id="path-effect3865" />
    <inkscape:path-effect
       effect="bend_path"
       id="path-effect3826" />
    <inkscape:path-effect
       effect="bend_path"
       id="path-effect3027" />
    <inkscape:path-effect
       effect="bend_path"
       id="path-effect4520" />
  </defs>
  <g
     transform="scale(0.95476003,0.95476003)"
     id="g3843">
    <path
       d="m 209.47672,104.73814 c 0,57.84956 -46.89519,104.73858 -104.73858,104.73858 C 46.89167,209.47672 0,162.5877 0,104.73814 0,46.89431 46.89167,0 104.73814,0 162.58153,0 209.47672,46.89431 209.47672,104.73814"
       id="path3381"
       style="fill:#dba111" />
    <path
       d="m 205.98214,104.73814 c 0,55.91719 -45.32681,101.24444 -101.24444,101.24444 -55.91807,0 -101.24576,-45.32681 -101.24576,-101.24444 0,-55.91807 45.32769,-101.24576 101.24576,-101.24576 55.91674,0 101.24444,45.32769 101.24444,101.24576"
       id="path3383"
       style="fill:#034694" />
    <path
       d="m 176.88814,104.73814 c 0,39.84786 -32.30302,72.14559 -72.15044,72.14559 -39.84963,0 -72.15353,-32.29773 -72.15353,-72.14559 0,-39.85139 32.3039,-72.15353 72.15353,-72.15353 39.8483,-4.4e-4 72.15044,32.30214 72.15044,72.15353"
       id="path3385"
       style="fill:#dba111" />
    <path
       d="m 174.70546,104.73814 c 0,38.64217 -31.33044,69.96688 -69.96732,69.96688 -38.64217,0 -69.96732,-31.32515 -69.96732,-69.96688 0,-38.64173 31.32515,-69.96776 69.96732,-69.96776 38.63776,0 69.96732,31.32559 69.96732,69.96776"
       id="path3387"
       style="fill:#ffffff" />
    <path
       d="m 44.78655,165.10044 c 0.77427,0.73902 2.67888,2.55285 2.67888,2.55285 l 1.82573,-1.92224 -5.4459,-5.19206 -0.70068,0.73505 -7.31217,7.66559 2.77627,2.64231 c 0,0 2.34485,-2.45899 3.20285,-3.35489 0.71698,0.68085 2.43739,2.32106 2.43739,2.32106 l 1.82705,-1.91828 c 0,0 -1.71776,-1.63888 -2.43386,-2.32457 0.45433,-0.47902 0.68525,-0.72139 1.14444,-1.20482"
       id="path3389"
       style="fill:#dba111" />
    <path
       d="m 57.92007,173.85495 c -0.24634,-1.4701 -1.07173,-2.76878 -2.32061,-3.6563 -1.24315,-0.88312 -2.73529,-1.2317 -4.20539,-0.99065 -1.58335,0.26926 -3.00586,1.19204 -4.00796,2.59428 -0.99858,1.41149 -1.4018,3.05654 -1.13299,4.64606 0.24722,1.4657 1.06688,2.756 2.3118,3.64353 1.2458,0.88576 2.74895,1.24007 4.21685,0.99329 1.58247,-0.26661 3.00586,-1.19116 4.00444,-2.5978 0.79939,-1.11536 1.21627,-2.39288 1.21627,-3.66997 4.4e-4,-0.31817 -0.0264,-0.64515 -0.0824,-0.96244 m -7.82027,4.07187 c -1.27268,-0.90031 -0.2221,-2.78244 0.51912,-3.81715 0.73946,-1.04309 2.17298,-2.65597 3.44566,-1.75655 1.3282,0.9501 0.0872,3.00278 -0.50854,3.8361 -0.59756,0.84258 -2.12539,2.68726 -3.45624,1.7376 z"
       id="path3391"
       style="fill:#dba111" />
    <path
       d="m 66.4798,176.76167 c -2.93051,-1.48289 -6.3202,-0.2675 -7.87712,2.81813 -0.78,1.54237 -0.93247,3.23546 -0.4301,4.75888 0.46403,1.4159 1.4701,2.57092 2.834,3.25705 1.3639,0.69451 2.89878,0.81526 4.31732,0.34946 1.52254,-0.49664 2.79258,-1.62169 3.56773,-3.16319 1.56353,-3.09135 0.52441,-6.53745 -2.41183,-8.02033 m -3.24119,8.57515 c -0.34372,0.11281 -0.66983,0.0776 -1.04,-0.10665 -0.58125,-0.29613 -0.78572,-0.82539 -0.78572,-1.41678 0,-0.81834 0.39352,-1.78254 0.72711,-2.44003 0.57817,-1.14312 1.75214,-2.94858 3.14512,-2.24569 0.36753,0.18772 0.58743,0.43142 0.69892,0.77118 0.23312,0.70332 -10e-4,1.85834 -0.62929,3.09488 -0.62488,1.23699 -1.41546,2.11129 -2.11614,2.34309 z"
       id="path3393"
       style="fill:#dba111" />
    <path
       d="m 72.53207,181.00495 -0.53939,1.5459 c 0,0 1.37932,0.48387 1.79797,0.62224 -0.52793,1.50976 -2.96136,8.45573 -2.96136,8.45573 l 3.61312,1.26695 c 0,0 2.43739,-6.9398 2.964,-8.44956 0.42129,0.14718 1.80105,0.62664 1.80105,0.62664 l 0.87563,-2.49512 -7.21522,-2.53125 -0.3358,0.95847"
       id="path3395"
       style="fill:#dba111" />
    <path
       d="m 87.53363,184.35719 -4.88271,-1.03119 -0.20888,0.99329 -2.18224,10.36299 4.96909,1.05366 c 1.5882,0.32786 2.63393,-0.0621 3.23016,-0.44773 0.75709,-0.494 1.28767,-1.30397 1.4917,-2.27214 0.056,-0.26352 0.0829,-0.51912 0.0829,-0.76942 0,-0.6998 -0.22166,-1.33085 -0.62268,-1.87288 0.55966,-0.44421 0.95891,-1.07173 1.12505,-1.85482 0.0423,-0.20227 0.0674,-0.43054 0.0674,-0.66895 0,-1.32644 -0.75752,-3.01071 -3.06976,-3.49281 m -1.34407,7.91149 c -0.052,0.23665 -0.14718,0.54997 -0.32654,0.66719 -0.16569,0.10752 -0.4843,0.12118 -0.89678,0.0317 0,0 -0.18773,-0.0414 -0.40983,-0.0851 0.15864,-0.74783 0.26485,-1.24536 0.41953,-1.99407 0.2124,0.0498 0.48386,0.10312 0.48386,0.10312 0.64075,0.13529 0.7637,0.60945 0.7637,0.95362 4.4e-4,0.13838 -0.0172,0.2556 -0.0339,0.32346 z M 85.856,186.72231 c 0.42878,0.0974 0.74386,0.25471 0.86505,0.43803 0.0555,0.0842 0.0828,0.20227 0.0828,0.34153 0,0.0842 -0.0115,0.18156 -0.0335,0.29878 -0.0657,0.30363 -0.15468,0.72491 -0.99946,0.55173 0,0 -0.10532,-0.0278 -0.25031,-0.0586 0.13485,-0.62709 0.19875,-0.94041 0.33536,-1.57146 z"
       id="path3397"
       style="fill:#dba111" />
    <path
       d="m 96.5477,186.04499 -5.30356,10.86051 3.02878,0.23223 c 0,0 0.81966,-1.7301 1.14708,-2.41932 0.64075,0.0533 1.28282,0.0983 1.91078,0.14895 0.23489,0.72536 0.82672,2.56651 0.82672,2.56651 l 4.02955,0.31332 -4.5024,-13.95627 -1.13695,2.25407"
       id="path3399"
       style="fill:#dba111" />
    <path
       d="m 108.50638,194.714 c -0.067,-1.58732 -0.37194,-8.81267 -0.37194,-8.81267 l -3.82684,0.16084 0.48386,11.596 7.66912,-0.31861 -0.11502,-2.78244 c 0,4.4e-4 -2.73925,0.11722 -3.83918,0.15688"
       id="path3401"
       style="fill:#dba111" />
    <path
       d="m 119.00333,193.60305 c -0.24678,-1.56925 -1.36655,-8.71264 -1.36655,-8.71264 l -1.00298,0.16085 -2.7842,0.43363 1.79708,11.46952 7.58627,-1.19115 -0.43451,-2.75159 c 0,0 -2.7062,0.42701 -3.79511,0.59138"
       id="path3403"
       style="fill:#dba111" />
    <path
       d="m 140.96495,185.88855 c -0.0308,0.99417 -0.61695,1.8504 -1.53135,2.2122 -0.50678,0.20139 -0.99065,0.20139 -1.47539,-0.004 -0.74387,-0.31861 -1.43309,-1.12417 -1.84688,-2.15932 -0.48695,-1.22112 -0.58611,-2.25847 -0.26661,-2.98735 0.21945,-0.51031 0.65,-0.8915 1.30749,-1.15502 0.71257,-0.28336 1.38901,-0.0225 2.3162,0.52352 l 0.85051,0.50194 1.41237,-2.22763 -0.83817,-0.55085 c -1.54061,-1.01224 -3.44786,-1.21891 -5.09776,-0.55966 -1.53136,0.61034 -2.71854,1.75258 -3.34607,3.21298 -0.63678,1.48112 -0.63678,3.17597 0.009,4.78356 1.21891,3.04685 4.66325,4.5478 7.67484,3.3421 2.17651,-0.86945 3.40821,-2.52288 3.56509,-4.78135 l 0.0714,-1.00783 -2.77231,-0.2058 -0.0326,1.06292"
       id="path3405"
       style="fill:#dba111" />
    <path
       d="m 149.89838,182.72095 c -0.78397,-1.39342 -4.30587,-7.71098 -4.30587,-7.71098 l -0.88223,0.49753 -2.46428,1.37623 5.6636,10.13295 6.6961,-3.74047 -1.35553,-2.43254 c 4.4e-4,0 -2.3964,1.33613 -3.35179,1.87728"
       id="path3407"
       style="fill:#dba111" />
    <path
       d="m 157.34583,167.09319 -0.82098,0.60064 -1.43837,1.05719 4.70027,6.40658 c 0.21505,0.28996 0.21505,0.48386 0.1961,0.59668 -0.0449,0.3305 -0.38912,0.68877 -0.69363,0.90823 -0.14366,0.10224 -0.47593,0.24193 -0.81613,0.18861 -0.24281,-0.0352 -0.43451,-0.16701 -0.60505,-0.39749 l -4.64519,-6.33474 -3.09576,2.2664 4.62271,6.30302 c 0.68614,0.93291 1.53797,1.48464 2.53214,1.63624 1.11535,0.17406 2.38318,-0.2058 3.56156,-1.07658 2.42372,-1.77197 2.38406,-4.12519 1.32644,-5.56708 l -4.82411,-6.5877"
       id="path3409"
       style="fill:#dba111" />
    <path
       d="m 171.44929,164.76421 c -0.71257,-0.73946 -1.59129,-1.07173 -2.51407,-1.02149 -0.0542,-0.71699 -0.33227,-1.40224 -0.88664,-1.976 -0.96817,-0.99946 -3.13278,-1.77814 -5.12553,0.16172 l -3.58491,3.46682 8.07763,8.33939 3.64661,-3.53512 c 1.16559,-1.12902 1.42206,-2.22234 1.43308,-2.92919 0.0194,-0.90691 -0.35342,-1.79444 -1.04617,-2.50613 m -6.10251,-0.28116 c 0.12031,0.12824 0.2675,0.27807 0.2675,0.48651 0,0.17099 -0.093,0.38207 -0.37282,0.64956 0,0 -0.0758,0.0767 -0.17803,0.17936 -0.45258,-0.46932 -0.66719,-0.68966 -1.12593,-1.16119 0.80864,-0.74166 1.14444,-0.42481 1.40928,-0.15424 z m 1.91255,2.87102 c 0.65484,-0.63193 1.28501,-0.0767 1.46481,0.11193 0.17407,0.17451 0.37193,0.42085 0.37193,0.63414 0,0 0,0 0,0.007 -0.004,0.19698 -0.17054,0.46976 -0.47064,0.76105 0,0 -0.13926,0.13529 -0.30451,0.29085 -0.52837,-0.54644 -0.88576,-0.91309 -1.41502,-1.45644 0.15644,-0.15556 0.35343,-0.34858 0.35343,-0.34858 z"
       id="path3411"
       style="fill:#dba111" />
    <path
       d="m 44.76143,164.02475 c 0.31596,0.30407 2.67447,2.55373 2.67447,2.55373 l 0.7778,-0.8201 -4.34553,-4.14414 -0.17495,0.18332 -6.78291,7.11519 1.67105,1.59481 c 0,0 2.88997,-3.02878 3.20108,-3.36017 0.31597,0.30055 2.44224,2.32546 2.44224,2.32546 l 0.77912,-0.81746 c 0,0 -2.12627,-2.02359 -2.44224,-2.32413 0.28204,-0.29526 1.92048,-2.01434 2.19987,-2.30651"
       id="path3413"
       style="fill:#ffffff" />
    <path
       d="m 55.1557,170.8178 c -1.07702,-0.76678 -2.366,-1.07305 -3.63119,-0.86152 -1.38901,0.2384 -2.63481,1.04925 -3.51661,2.2902 -0.88444,1.24491 -1.23918,2.68813 -1.00342,4.07186 0.21196,1.26871 0.92498,2.38848 2.00288,3.15261 1.08363,0.77119 2.3779,1.07261 3.64881,0.85977 1.38153,-0.23224 2.62909,-1.04661 3.50956,-2.27919 0.70377,-0.99417 1.0757,-2.1201 1.0757,-3.23546 0,-0.27807 -0.0242,-0.55966 -0.0696,-0.83729 -0.21549,-1.26695 -0.92983,-2.38979 -2.0161,-3.16098 m -0.98051,5.81563 c -0.72888,1.01929 -2.626,3.25925 -4.5143,1.91607 -1.8817,-1.3357 -0.3878,-3.86122 0.338,-4.88712 0.728,-1.0259 2.626,-3.2619 4.50505,-1.92621 1.88874,1.3476 0.39925,3.87444 -0.32875,4.89726 z"
       id="path3415"
       style="fill:#ffffff" />
    <path
       d="m 66.13651,177.44428 c -2.54271,-1.2859 -5.48864,-0.21594 -6.85474,2.48586 -0.6879,1.35817 -0.82363,2.8362 -0.38692,4.1763 0.40102,1.21716 1.27268,2.21265 2.45502,2.80756 1.18498,0.60594 2.51363,0.71346 3.73739,0.31068 1.33129,-0.43979 2.44268,-1.42603 3.13057,-2.78332 1.36214,-2.70136 0.46845,-5.71207 -2.08132,-6.99708 m -4.28074,8.46145 c -2.05885,-1.03559 -0.96333,-3.75942 -0.39441,-4.8783 0.56715,-1.12417 2.1082,-3.62105 4.16397,-2.57621 0.54732,0.27367 0.91264,0.68085 1.08671,1.21363 0.40366,1.23346 -0.25119,2.82739 -0.67865,3.67437 -0.42525,0.84082 -1.32335,2.31533 -2.55813,2.71987 -0.52837,0.17891 -1.07482,0.12471 -1.61949,-0.15336 z"
       id="path3417"
       style="fill:#ffffff" />
    <path
       d="m 73.25346,181.25438 -0.29173,0.82539 c 0,0 1.43882,0.5059 1.79929,0.63281 -0.15952,0.4517 -2.964,8.44868 -2.964,8.44868 l 2.17959,0.7659 c 0,0 2.80668,-7.99655 2.96356,-8.44956 0.36048,0.12559 1.79929,0.6284 1.79929,0.6284 l 0.3759,-1.06203 -5.78169,-2.02932 -0.0802,0.23973"
       id="path3419"
       style="fill:#ffffff" />
    <path
       d="m 87.37983,185.09929 -4.1384,-0.87342 -0.0555,0.25118 -2.02271,9.62353 4.22258,0.88664 c 1.07349,0.22475 1.96674,0.11282 2.65773,-0.33976 0.59755,-0.39 0.99857,-1.01224 1.1625,-1.78695 0.0419,-0.21152 0.067,-0.41335 0.067,-0.61034 0,-0.84169 -0.41732,-1.55427 -1.16251,-2.06501 0.86285,-0.24811 1.48068,-0.88312 1.67942,-1.82573 0.0339,-0.14719 0.0542,-0.32126 0.0542,-0.51824 -4.4e-4,-0.96288 -0.50678,-2.32898 -2.46428,-2.7419 m -1.44674,0.85183 c 0.69583,0.14719 1.17749,0.41336 1.42251,0.7919 0.14101,0.21505 0.21064,0.46668 0.21064,0.75929 0,0.14278 -0.0185,0.29085 -0.052,0.45169 -0.26881,1.2815 -1.30396,1.26783 -1.89932,1.13783 0,0 -0.63017,-0.13 -0.99549,-0.20667 0.085,-0.39485 0.56539,-2.67933 0.64824,-3.07285 0.2644,0.0538 0.66542,0.13881 0.66542,0.13881 z m -0.31817,4.29573 c 1.17573,0.24722 1.36125,1.17485 1.36125,1.73848 0,0.24193 -0.0379,0.41467 -0.0427,0.44332 -0.11854,0.55613 -0.33051,0.93203 -0.65617,1.14224 -0.34417,0.22959 -0.83993,0.27366 -1.46702,0.14366 0,0 -0.75268,-0.16085 -1.1559,-0.24105 0.0868,-0.4138 0.64956,-3.07946 0.73461,-3.48577 0.34461,0.0718 1.22597,0.25912 1.22597,0.25912 z"
       id="path3421"
       style="fill:#ffffff" />
    <path
       d="m 97.23383,186.37902 -4.81352,9.85312 1.38637,0.10312 c 0,0 1.01885,-2.14126 1.1537,-2.41492 0.29305,0.0225 2.64935,0.2058 2.93844,0.22916 0.0921,0.28247 0.82715,2.5665 0.82715,2.5665 l 2.38759,0.18421 -3.57522,-11.08393 -0.30451,0.56274 m -0.52837,3.9617 c 0.23268,0.7443 0.68041,2.17915 0.82848,2.64759 -0.4755,-0.0353 -1.57058,-0.12031 -2.04122,-0.156 0.21593,-0.44288 0.8721,-1.7918 1.21274,-2.49159 z"
       id="path3423"
       style="fill:#ffffff" />
    <path
       d="m 107.77529,195.50767 c -0.019,-0.48034 -0.37281,-8.81268 -0.37281,-8.81268 l -0.2459,0.009 -2.06061,0.0842 0.42349,10.08051 6.14966,-0.26088 -0.0542,-1.25814 c 0.001,4.4e-4 -3.39498,0.14366 -3.83963,0.15821"
       id="path3425"
       style="fill:#ffffff" />
    <path
       d="m 118.37139,194.48177 c -0.0767,-0.47505 -1.3705,-8.72322 -1.3705,-8.72322 l -0.24678,0.0397 -2.03329,0.32169 1.56308,9.96505 6.08004,-0.95979 -0.19611,-1.24536 c -4.4e-4,8.8e-4 -3.36149,0.52881 -3.79644,0.60197"
       id="path3427"
       style="fill:#ffffff" />
    <path
       d="m 141.72248,185.90573 c -0.0361,1.31278 -0.80644,2.42461 -2.00729,2.90848 -0.69891,0.27807 -1.38902,0.26837 -2.0562,-0.0181 -0.93997,-0.39749 -1.76095,-1.33922 -2.25848,-2.57532 -0.5601,-1.41149 -0.65044,-2.6476 -0.25912,-3.5717 0.30451,-0.69891 0.88312,-1.222 1.72922,-1.55779 1.10699,-0.44333 2.12319,0.0621 2.98339,0.57244 l 0.21505,0.12559 0.61872,-0.97169 -0.20712,-0.1397 c -1.33482,-0.8743 -2.98339,-1.05675 -4.40237,-0.48871 -1.34451,0.53895 -2.38848,1.53312 -2.93051,2.80579 -0.55614,1.28943 -0.55085,2.78597 0.0181,4.19658 1.06116,2.66214 4.05733,3.96963 6.68861,2.92126 1.90814,-0.7659 2.94373,-2.15007 3.08211,-4.12607 l 0.0181,-0.25471 -1.21803,-0.0842 -0.0141,0.25779"
       id="path3429"
       style="fill:#ffffff" />
    <path
       d="m 149.60312,183.75567 c -0.23752,-0.41645 -4.30586,-7.7057 -4.30586,-7.7057 l -0.22387,0.12471 -1.79179,1.00343 4.91444,8.80078 5.3723,-2.9997 -0.61122,-1.10169 c 8.8e-4,8.8e-4 -2.97369,1.65783 -3.354,1.87817"
       id="path3431"
       style="fill:#ffffff" />
    <path
       d="m 157.1797,168.15522 -0.20756,0.15248 -0.82363,0.60505 4.25166,5.79271 c 0.28468,0.39 0.39661,0.77912 0.3358,1.16031 -0.10136,0.6901 -0.72976,1.21979 -0.99329,1.40796 -0.30142,0.22739 -0.85315,0.41556 -1.38152,0.32963 -0.44861,-0.0661 -0.81614,-0.30319 -1.11095,-0.69803 l -4.19746,-5.72529 -1.85922,1.37095 4.17014,5.68474 c 0.56098,0.76678 1.24623,1.21892 2.03372,1.3357 1.24183,0.18773 2.40743,-0.5037 2.99353,-0.93115 2.01213,-1.47936 2.03902,-3.33021 1.16956,-4.5077 l -4.38078,-5.97736"
       id="path3433"
       style="fill:#ffffff" />
    <path
       d="m 170.90197,165.29346 c -0.78044,-0.80732 -1.77902,-0.99152 -2.81461,-0.59315 0.082,-0.24149 0.13088,-0.48783 0.13088,-0.73417 0,-0.59888 -0.23841,-1.18322 -0.71786,-1.67634 -0.64912,-0.66763 -2.32987,-1.49258 -4.04895,0.17892 l -3.03848,2.94372 7.01472,7.24167 3.10633,-3.0116 c 0.78309,-0.75223 1.19204,-1.56308 1.20173,-2.38318 0.0123,-0.71611 -0.27851,-1.39343 -0.83376,-1.96587 m -4.52973,-0.31464 c 0,0.50722 -0.33051,0.92366 -0.59668,1.18366 0,0 -0.46579,0.45257 -0.72888,0.71169 -0.28335,-0.29084 -1.90901,-1.96586 -2.18708,-2.26288 0.18861,-0.18244 0.48562,-0.46535 0.48562,-0.46535 0.94922,-0.92455 1.78255,-0.9858 2.54756,-0.19302 0.35034,0.364 0.47946,0.70773 0.47946,1.0259 z m 1.93193,5.25508 c -0.28732,-0.29613 -2.18267,-2.25759 -2.47352,-2.55373 0.2503,-0.24105 0.89942,-0.87254 0.89942,-0.87254 1.23787,-1.19291 2.49248,0.0714 2.5458,0.13 0.39,0.40278 0.58169,0.78397 0.58169,1.16295 0,0.007 0,0.011 0,0.0145 -0.005,0.41644 -0.24634,0.85227 -0.7042,1.30485 0.001,0 -0.60373,0.58125 -0.84919,0.81393 z"
       id="path3435"
       style="fill:#ffffff" />
    <path
       d="m 58.20475,35.73943 -4.23359,1.14179 0.48606,1.51638 c 0.58478,1.83851 0.0555,3.76339 -1.37755,5.0202 -0.79719,0.69892 -1.71777,1.01973 -2.73309,0.9501 -1.54281,-0.10356 -3.28437,-1.10213 -4.65664,-2.67271 -1.61729,-1.85261 -2.42417,-3.63603 -2.3215,-5.14756 0.0714,-1.10213 0.60726,-2.0703 1.63536,-2.97105 1.13563,-0.99461 2.57576,-0.95583 4.52929,-0.56847 l 1.44895,0.28644 0.93688,-4.05468 -1.45864,-0.35563 c -3.13631,-0.77603 -6.40702,-0.0137 -8.74041,2.02888 -4.56983,3.99871 -4.94265,10.52912 -0.86682,15.19017 3.78763,4.3301 10.35946,4.80207 14.64285,1.05543 3.08519,-2.69475 4.16,-6.14261 3.11207,-9.96021 l -0.40322,-1.45908"
       id="path3437"
       style="fill:#dba111" />
    <path
       d="m 69.70116,14.50492 -4.32438,2.03637 c 0,0 2.41404,5.11583 3.24383,6.87899 -1.23345,0.57993 -2.42813,1.14444 -3.66291,1.72745 -0.83288,-1.76183 -3.24824,-6.87986 -3.24824,-6.87986 l -5.694,2.68813 8.67166,18.3939 5.69885,-2.68681 c 0,0 -2.68681,-5.68915 -3.55098,-7.53383 1.23434,-0.57773 2.42813,-1.1418 3.66512,-1.72437 0.86681,1.83939 3.5501,7.52942 3.5501,7.52942 l 5.69752,-2.68858 -8.66901,-18.38949 -1.37756,0.64868"
       id="path3439"
       style="fill:#dba111" />
    <path
       d="m 88.98082,25.90041 c -0.27763,-1.36963 -0.55966,-2.76305 -0.83377,-4.13091 1.75919,-0.35387 6.4339,-1.2978 6.4339,-1.2978 l -0.8223,-4.08553 c 0,0 -4.67692,0.94526 -6.43743,1.30088 -0.25339,-1.2524 -0.46315,-2.3043 -0.7183,-3.55494 1.82705,-0.36841 6.82963,-1.37933 6.82963,-1.37933 L 92.60804,8.66902 91.1115,8.96956 79.60407,11.29678 83.62702,31.23173 96.73631,28.5815 95.91268,24.49994 c 0,0 -5.09247,1.02634 -6.93186,1.40047"
       id="path3441"
       style="fill:#dba111" />
    <path
       d="m 107.57478,8.19617 -6.30434,-0.13088 -0.0313,1.52034 -0.39397,18.81078 13.23356,0.27763 0.0947,-4.40458 c 0,0 -5.08058,-0.10929 -6.93716,-0.14718 0.0529,-2.48984 0.33844,-15.92611 0.33844,-15.92611"
       id="path3443"
       style="fill:#dba111" />
    <path
       d="m 128.00373,18.45207 c -1.63535,-1.20129 -2.11393,-1.68295 -1.94868,-2.33912 0.0811,-0.3402 0.4517,-1.42647 1.62655,-1.13562 0.70684,0.18156 1.41017,0.55393 1.72349,2.07515 l 0.34417,1.68868 4.16264,-1.40665 -0.25912,-1.31057 c -0.51206,-2.574 -2.68901,-4.76505 -5.42166,-5.44766 -1.95705,-0.48607 -3.91895,-0.22607 -5.52918,0.74122 -1.47804,0.88532 -2.5176,2.28271 -2.92875,3.93657 -1.04485,4.16882 1.76536,6.1761 3.62325,7.50607 1.90506,1.36214 2.38936,1.89536 2.09851,3.03319 -0.0912,0.35562 -0.30054,0.63634 -0.6284,0.83508 -0.38119,0.22431 -0.85977,0.30539 -1.24888,0.20403 -1.00078,-0.24633 -1.43397,-0.71918 -1.8557,-2.01345 l -0.51119,-1.55163 -4.17674,1.70807 0.40454,1.326 c 0.78309,2.57664 2.65244,4.20054 5.71163,4.96688 3.43817,0.8602 7.60918,-0.72095 8.6483,-4.84922 1.08407,-4.34993 -1.8764,-6.52953 -3.83478,-7.96702"
       id="path3445"
       style="fill:#dba111" />
    <path
       d="m 143.04363,29.29804 c 1.60451,0.81085 5.85705,2.96135 5.85705,2.96135 l 1.88082,-3.71844 c 0,0 -4.25607,-2.15051 -5.85529,-2.95871 0.57244,-1.14047 1.05762,-2.09939 1.62918,-3.23766 1.6596,0.83817 6.22105,3.14336 6.22105,3.14336 l 1.87553,-3.71844 -11.83705,-5.98177 -0.68437,1.35509 -8.49099,16.79379 11.93621,6.02848 1.88213,-3.71624 c 0,0 -4.63813,-2.34308 -6.31403,-3.18698 0.62752,-1.248 1.27224,-2.51539 1.89976,-3.76383"
       id="path3447"
       style="fill:#dba111" />
    <path
       d="m 166.61814,31.19736 -18.96722,9.81434 3.62854,3.15569 c 0,0 3.13058,-1.66444 4.26841,-2.262 0.8461,0.73682 2.09322,1.82177 2.92566,2.54492 -0.40807,1.2101 -1.56749,4.61258 -1.56749,4.61258 l 4.99905,4.34949 8.10935,-23.91251 -3.3963,1.69749"
       id="path3449"
       style="fill:#dba111" />
    <path
       d="m 57.49394,36.97685 -2.23556,0.6077 0.16393,0.50589 c 0.71037,2.2316 0.0696,4.56587 -1.67766,6.0937 -1.00343,0.88047 -2.17343,1.28369 -3.46593,1.20041 -1.83234,-0.12295 -3.78102,-1.22288 -5.3538,-3.02173 -1.79841,-2.05885 -2.6899,-4.09434 -2.5718,-5.88702 0.0926,-1.36125 0.75973,-2.59427 1.98305,-3.66424 1.60627,-1.40444 3.62855,-1.14752 5.39434,-0.79806 l 0.48519,0.0939 0.48915,-2.11922 -0.48607,-0.12119 c -2.81857,-0.69186 -5.74335,-0.0154 -7.83128,1.81251 -4.13092,3.61797 -4.46275,9.52702 -0.76899,13.754 3.41878,3.90882 9.34414,4.33715 13.21241,0.95892 2.80491,-2.45987 3.74752,-5.45912 2.79742,-8.92417 l -0.1344,-0.49136"
       id="path3451"
       style="fill:#ffffff" />
    <path
       d="m 70.13302,15.41844 -3.40203,1.60848 c 0,0 2.86396,6.07739 3.24074,6.87634 -0.728,0.34505 -4.76901,2.25186 -5.5023,2.59427 -0.3759,-0.80027 -3.2381,-6.87722 -3.2381,-6.87722 l -3.86695,1.82176 7.80661,16.55407 3.8643,-1.81912 c 0,0 -3.16935,-6.71813 -3.55098,-7.53119 0.73285,-0.34505 4.76902,-2.24701 5.50186,-2.59339 0.38075,0.81085 3.55099,7.53295 3.55099,7.53295 l 3.85945,-1.82352 -7.80617,-16.55671 -0.45742,0.21328"
       id="path3453"
       style="fill:#ffffff" />
    <path
       d="m 88.18407,27.09597 c -0.15864,-0.79542 -1.07349,-5.32471 -1.23213,-6.12014 0.84654,-0.1701 6.43301,-1.29911 6.43301,-1.29911 l -0.42261,-2.09146 c 0,0 -5.58471,1.12417 -6.4361,1.29647 -0.15468,-0.78 -0.96068,-4.76505 -1.11535,-5.54417 C 86.26404,13.16261 92.23655,11.96 92.23655,11.96 L 91.81305,9.86767 80.80051,12.09 84.42289,30.03265 95.54075,27.78828 95.11814,25.69594 c -8.8e-4,4.4e-4 -6.07386,1.22596 -6.93407,1.40003"
       id="path3455"
       style="fill:#ffffff" />
    <path
       d="m 106.53699,9.19167 -4.26929,-0.0925 -0.009,0.50414 -0.3781,17.79766 11.20777,0.23752 0.0498,-2.37569 c 0,0 -6.06725,-0.12824 -6.93627,-0.14675 0.022,-0.94966 0.33536,-15.92433 0.33536,-15.92433"
       id="path3457"
       style="fill:#ffffff" />
    <path
       d="m 127.92794,13.9955 c 1.35728,0.33976 2.14125,1.24667 2.47352,2.85294 l 0.11546,0.56143 2.22675,-0.75268 -0.0842,-0.43936 c -0.4398,-2.19325 -2.31621,-4.06701 -4.67295,-4.65972 -1.69441,-0.42261 -3.38221,-0.20095 -4.75844,0.62532 -1.24492,0.74827 -2.12275,1.92708 -2.46868,3.31742 -0.87695,3.49678 1.40224,5.12553 3.23017,6.43214 1.8504,1.32335 2.96576,2.22674 2.49071,4.10359 -0.18861,0.78132 -0.69892,1.22773 -1.09244,1.46261 -0.6099,0.36532 -1.35817,0.47946 -2.01566,0.31817 -1.3498,-0.33844 -2.04475,-1.06424 -2.5718,-2.68329 l -0.17186,-0.51735 -2.31092,0.94261 0.13441,0.44376 c 0.67159,2.20824 2.3043,3.60827 4.99112,4.28074 2.95166,0.73726 6.52864,-0.59844 7.41,-4.11461 0.91837,-3.68539 -1.50095,-5.46881 -3.45888,-6.90013 -1.6618,-1.22685 -2.66567,-2.04695 -2.32414,-3.40248 0.29922,-1.21186 1.30264,-2.26067 2.8578,-1.87111"
       id="path3459"
       style="fill:#ffffff" />
    <path
       d="m 146.10855,20.98333 c 0.77912,0.39176 6.21444,3.1385 6.21444,3.1385 l 0.96729,-1.90681 -10.02543,-5.06471 -0.22959,0.45213 -8.02783,15.88689 10.11929,5.11406 0.9642,-1.90593 c 0,0 -5.52478,-2.79346 -6.30742,-3.19051 0.36488,-0.72535 2.44972,-4.84437 2.81196,-5.57017 0.77119,0.38956 5.85529,2.95872 5.85529,2.95872 l 0.96905,-1.90682 c 0,0 -5.08939,-2.56695 -5.86058,-2.95871 0.35872,-0.70773 2.1915,-4.33892 2.54933,-5.04664"
       id="path3461"
       style="fill:#ffffff" />
    <path
       d="m 167.08482,32.10075 -17.63814,9.1282 1.97115,1.7138 c 0,0 3.74048,-1.98305 4.26973,-2.26332 0.43892,0.38339 3.53909,3.08034 3.96875,3.45447 -0.18685,0.55746 -1.57234,4.60817 -1.57234,4.60817 l 3.34739,2.91024 6.81508,-20.09624 -1.16162,0.54468 m -9.35515,7.52854 c 0.8342,-0.43142 2.96576,-1.53885 4.26576,-2.21529 -0.48387,1.38197 -1.28149,3.65763 -1.58732,4.54339 -0.67644,-0.59227 -2.00112,-1.74332 -2.67844,-2.3281 z"
       id="path3463"
       style="fill:#ffffff" />
    <path
       d="m 154.77668,101.99007 c -1.44674,-3.83125 -6.42773,-5.49569 -11.13637,-3.71844 -1.96322,0.73858 -3.57126,1.97336 -4.66766,3.43112 3.10898,-8.87349 15.77318,-10.75651 15.77318,-19.01173 0,-13.83685 -19.64983,-9.96108 -16.79071,0.002 0,-4.52047 7.19451,-5.34894 7.19451,0 0,5.34983 -12.54478,8.85807 -12.54478,17.89594 0,9.96328 9.96505,10.88518 8.95634,19.99752 -0.17142,1.57102 -1.86098,3.6356 -4.30675,3.6356 -15.26288,0 -9.81433,-18.78875 -15.14742,-24.50611 l 0.27895,-3.86034 c 3.08298,1.89051 11.26241,-2.5383 5.87776,-9.28949 0,3.32007 -6.91335,3.13631 -6.91335,-3.1363 0,-8.48746 7.93484,-4.05865 8.32044,-2.18444 -0.38031,-3.09092 -0.52397,-5.05238 -0.0137,-6.8336 -4.27766,1.37933 -4.6778,-1.09332 -4.13665,-2.05003 0.6196,-1.10654 1.44851,-2.39905 3.11516,-2.39905 0.90074,0 1.44145,0.12559 1.76006,0.34505 0.53278,0.36444 0.92234,-0.468 0.8461,0.30627 0.45787,-0.69671 0.27455,0.17319 0.71611,-0.52573 0.44993,-0.69407 1.05586,-1.47891 2.12054,-2.52464 l -0.0458,-1.56573 1.24624,0.45698 1.19644,-1.93501 c -1.29119,-2.67712 -3.04333,-1.3877 -4.33363,-4.70689 -1.07922,-0.28027 -17.88712,1.54767 -17.39973,-5.15725 -1.37051,0 -4.61698,0.75092 -2.60793,3.48092 -1.56221,0.18816 -2.68814,-1.586 -5.04312,3.21254 2.9499,-0.55305 1.42295,2.74454 1.42295,3.68274 0,6.0796 -8.09349,5.97692 -8.09349,3.12926 -1.95044,1.89535 -0.8439,6.03993 2.106,7.06098 0,0 -1.12197,4.43322 -3.89119,7.24387 C 94.52454,82.30214 87.92979,81.5878 84.13599,78.00157 82.49976,76.45611 81.20064,75.61397 80.0941,75.18123 v -2.00949 c 1.61993,-0.79278 3.3963,-2.1959 5.2423,-4.54075 1.44014,-1.75875 2.2197,-4.01414 2.00993,-6.40922 -0.0273,-0.286 -0.0696,-0.56847 -0.11986,-0.8439 -0.0154,-0.0877 -0.037,-0.17274 -0.0573,-0.26 -0.0405,-0.19302 -0.0873,-0.3781 -0.14322,-0.56891 -0.0269,-0.0921 -0.052,-0.18641 -0.0811,-0.27763 -0.0626,-0.19125 -0.13133,-0.37414 -0.2058,-0.5557 -0.0313,-0.0762 -0.0533,-0.15732 -0.0899,-0.22871 -0.10268,-0.24457 -0.21725,-0.47461 -0.34108,-0.7064 -0.0529,-0.0939 -0.10885,-0.18156 -0.16041,-0.26794 -0.0851,-0.13925 -0.1657,-0.28027 -0.25515,-0.41467 -0.0723,-0.10665 -0.14807,-0.21461 -0.22431,-0.32214 -0.0784,-0.10268 -0.16129,-0.208 -0.24193,-0.31112 -0.0895,-0.11017 -0.17759,-0.22695 -0.27322,-0.33624 -0.0635,-0.0723 -0.1322,-0.14189 -0.19919,-0.20844 -0.23973,-0.26484 -0.49973,-0.51118 -0.77118,-0.7465 -0.0225,-0.0194 -0.0494,-0.0445 -0.0758,-0.0648 -0.15159,-0.12956 -0.31332,-0.25339 -0.47241,-0.3715 -0.0405,-0.0308 -0.0828,-0.0608 -0.12823,-0.0925 -0.17011,-0.11986 -0.34417,-0.23708 -0.52573,-0.34902 -0.011,-0.007 -0.0212,-0.0114 -0.0291,-0.0194 -1.72746,-1.05762 -3.81495,-1.61111 -6.01966,-1.43616 -5.30841,0.42261 -9.25424,4.85803 -8.81091,9.90732 0.34505,3.93393 3.24647,7.07596 7.01867,8.07807 -1.32335,0.73857 -2.44135,1.16471 -2.69386,1.16471 0.0419,0.0269 0.0965,0.0582 0.156,0.0965 0.0154,0.007 0.0335,0.0181 0.052,0.0273 0.0511,0.033 0.11193,0.067 0.17407,0.10047 0.0154,0.009 0.0344,0.0176 0.0494,0.0269 0.0851,0.0428 0.17275,0.0873 0.27146,0.13441 0.0154,0.007 0.0339,0.0128 0.0494,0.0203 0.0873,0.0405 0.17627,0.0829 0.27057,0.11898 0.0269,0.0123 0.056,0.0234 0.085,0.0331 0.23092,0.0965 0.49092,0.18332 0.77516,0.2644 0.0405,0.011 0.0833,0.0203 0.1181,0.0313 0.11501,0.0291 0.23179,0.056 0.35254,0.085 0.0397,0.007 0.0802,0.0154 0.12295,0.0242 0.15247,0.0273 0.312,0.0542 0.47197,0.0736 0.0137,0 0.0273,0.007 0.0405,0.007 v 1.14268 c -0.0599,0.0132 -0.11414,0.0194 -0.1701,0.0282 -1.72658,0.28424 -2.84855,0.8157 -3.35577,2.35278 -0.50413,1.54282 0.0137,2.10028 0.82231,3.18258 -0.68305,1.22112 -2.47309,1.67766 -0.13705,4.37549 -0.1701,1.01885 0.0454,2.64143 1.52827,3.13366 0.48386,0.16394 0.88708,0.25119 1.31234,0.32478 l -0.002,20.22536 c -1.47891,0.78352 -2.20867,1.76095 -2.61233,2.67183 0,0 -1.18719,-2.6357 -1.10875,2.58546 1.34892,-1.04661 0.8179,1.21186 0.8179,1.21186 -1.83675,2.37966 0.4962,2.25054 0.4962,2.25054 1.58204,-1.58027 1.25946,0.71611 1.25946,0.71611 0,2.8005 1.13739,3.89647 1.14708,3.90088 v 15.4083 l -1.34362,0.004 0.0128,4.25166 2.34969,-0.004 c -1.31851,0.54732 -2.18841,1.84953 -2.06149,3.28878 0.15953,1.81427 1.83542,3.16231 3.744,3.01512 1.90681,-0.15336 3.32403,-1.74376 3.16142,-3.56244 -0.10796,-1.25505 -0.93952,-2.27919 -2.0703,-2.74983 l 2.16813,-0.006 -0.009,-4.25166 -1.29295,0.006 0.002,-13.67071 c 0.26661,0.1463 0.55481,0.24766 0.86769,0.31596 0.12471,0.0234 0.24854,0.0405 0.3759,0.0489 0.056,0.009 0.11413,0.009 0.1701,0.0106 -0.34769,-1.79708 0.7258,-2.98823 0.7258,-2.98823 0.55128,-0.8298 1.34847,-1.47672 2.25583,-1.93326 2.71325,-1.36125 6.41583,-1.01708 7.52237,1.19909 7.01163,-1.84821 13.03702,-8.89597 13.03702,-8.89597 l 3.45139,5.87424 c -7.31746,2.44664 -23.2559,16.30244 -12.19224,21.10142 -0.004,1.39695 -0.19125,11.76434 -6.83932,10.94071 -9.57417,-1.17925 -11.96177,2.782 -10.12326,7.23505 -0.86417,3.75502 2.02756,5.05855 2.02756,5.05855 -0.43407,-2.16902 0.60902,-3.9661 4.56587,-3.94319 -0.0203,3.95685 2.53522,4.67031 2.53522,4.67031 0.0181,-3.38838 2.37261,-4.64343 4.46451,-4.63417 -0.0154,2.79213 3.2284,3.85328 3.2284,3.85328 0,0 -0.8223,-3.21783 2.84458,-3.85328 9.28244,-1.61729 0.56451,-11.16414 14.68074,-13.79499 0,0 -7.02925,-1.05983 -7.02925,-4.90254 0,-3.49766 6.36295,-5.88922 8.55356,-5.88922 4.49271,8.58397 9.37366,8.65183 10.65295,8.71309 1.98966,2.22233 1.32291,9.71298 -1.54942,9.56579 -10.51502,-0.56451 -10.13031,5.83149 -8.95194,7.13987 -0.1344,2.48278 1.79709,3.91674 1.79709,3.91674 0,-2.66125 2.53213,-3.40952 5.77949,-3.23369 -0.17054,3.25088 1.90064,3.73651 1.90064,3.73651 0.0568,-3.2716 2.47705,-3.82641 4.19658,-3.73651 -0.12559,2.29284 2.15007,2.96796 2.15007,2.96796 0,0 -0.22387,-2.91023 2.83973,-2.91023 5.81166,-0.004 -2.62865,-12.45885 8.71396,-24.77668 -9.96373,4.61213 -15.26464,-6.91688 -15.26464,-9.12953 5.12112,5.99278 21.72498,7.18922 21.72498,-3.04773 0,-9.77952 -10.74858,-13.42349 -5.71956,-17.16396 2.92478,-2.17475 8.67651,2.21881 5.38553,6.75735 4.71922,-1.74861 7.34874,-6.31844 5.90508,-10.14749 m -63.68722,0.30848 c -3.75634,2.20867 -6.27481,5.00301 -9.69932,6.22545 -0.52,0.18244 -0.93468,0.23444 -1.29515,0.21109 V 89.64644 c 0.90735,0.085 3.2619,0.40719 6.01481,1.54546 2.72648,1.48773 2.72648,4.56278 -0.71434,5.29166 2.17475,4.16397 9.70814,2.12539 11.3501,-1.26607 0.80424,-0.0714 1.51505,1.36434 2.18356,2.72163 -1.05718,0.54908 -3.22047,1.6402 -7.83966,4.35919 z m 42.04465,-31.64377 c -0.41336,0.56055 -0.82055,1.118 -1.1775,1.5957 0.95275,1.58335 2.74499,2.57312 4.70865,2.39156 2.71369,-0.25692 4.71129,-2.66566 4.46186,-5.382 -0.0145,-0.0987 -0.0282,-0.18773 -0.0414,-0.28424 -0.29085,1.40664 -1.94868,2.5978 -4.05732,2.79258 -1.59658,0.14983 -3.042,-0.30848 -3.89427,-1.1136 z"
       id="path3465"
       style="fill:#d1d3d4" />
    <path
       d="m 128.9177,69.21024 c 0.94569,1.58336 2.74234,2.57312 4.70556,2.39024 2.7181,-0.25383 4.71041,-2.6639 4.46186,-5.38332 -0.0101,-0.0961 -0.0278,-0.18861 -0.0405,-0.28468 -0.2882,1.40488 -1.95397,2.59912 -4.0582,2.79434 -1.60099,0.14983 -3.04421,-0.30936 -3.89648,-1.1136 -0.41071,0.56231 -0.82274,1.11933 -1.1722,1.59702"
       id="path3469"
       style="fill:#ed1c24" />
    <path
       d="m 114.375,48.46875 c -0.0782,0 -0.15693,0.03035 -0.25,0.0625 -1.706,0.360097 -6.94307,3.964036 -5.03125,6.5625 -1.56925,0.18553 -5.21237,-0.88965 -7.5625,3.90625 2.95255,-0.55569 3.9375,2.06048 3.9375,3 0,3.55892 -2.76481,4.98634 -5.0625,5 -1.538086,0.0039 -2.857022,-0.622439 -3,-1.6875 0.0066,-0.03141 -0.0073,-0.06205 0,-0.09375 -0.002,-0.003 -0.03125,0.004 -0.03125,0 l -0.0625,0 c -1.83233,1.93326 -0.71921,5.96268 2.1875,6.96875 0,0 -1.13703,4.43891 -3.90625,7.25 -2.75689,-0.10709 -6.6059,-0.48213 -10,-1.78125 -0.9501,-0.36136 -1.84933,-0.81494 -2.6875,-1.34375 -0.64691,-0.40102 -1.26738,-0.83036 -1.8125,-1.34375 -1.63536,-1.54546 -2.92647,-2.38461 -4.03125,-2.8125 l 0,-2.03125 c 1.61993,-0.79454 3.404,-2.1864 5.25,-4.53125 1.44234,-1.75698 2.21064,-4.0094 2,-6.40625 -0.0225,-0.28644 -0.06817,-0.56348 -0.125,-0.84375 -0.0128,-0.0873 -0.044,-0.16275 -0.0625,-0.25 C 84.0827,57.90073 84.05548,57.68553 84,57.5 83.9749,57.4053 83.93925,57.31261 83.90625,57.21875 83.84545,57.02749 83.75889,56.86906 83.6875,56.6875 83.6558,56.6104 83.6567,56.51373 83.625,56.4375 83.51967,56.19777 83.40288,55.97606 83.28125,55.75 83.23275,55.6535 83.17567,55.56085 83.125,55.46875 83.0399,55.33038 82.93233,55.19691 82.84375,55.0625 82.77015,54.95498 82.70389,54.85709 82.625,54.75 c -0.078,-0.10268 -0.16672,-0.21379 -0.25,-0.3125 -0.089,-0.11678 -0.15349,-0.23447 -0.25,-0.34375 -0.0626,-0.0723 -0.15133,-0.15 -0.21875,-0.21875 -0.24237,-0.2622 -0.47942,-0.51908 -0.75,-0.75 -0.0273,-0.022 -0.06685,-0.0431 -0.09375,-0.0625 -0.15203,-0.12779 -0.30525,-0.25866 -0.46875,-0.375 -0.0432,-0.0282 -0.08271,-0.06465 -0.125,-0.09375 -0.17274,-0.12294 -0.34881,-0.2305 -0.53125,-0.34375 -0.0106,-0.005 -0.02115,0.0039 -0.03125,0 -1.72657,-1.06291 -3.79617,-1.60981 -6,-1.4375 -0.47461,0.0379 -0.95456,0.12225 -1.40625,0.21875 -4.58833,1.01665 -7.81123,5.09123 -7.40625,9.6875 0.34329,3.89339 3.16273,6.9961 6.875,8.03125 0.0379,0.0106 0.0853,0.02155 0.125,0.03125 -1.326,0.73858 -2.43367,1.15625 -2.6875,1.15625 0.0432,0.0273 0.09593,0.0845 0.15625,0.125 0.0154,0.007 0.0448,-0.0097 0.0625,0 0.0533,0.0309 0.08927,0.0893 0.15625,0.125 0.0163,0.009 0.044,-0.0061 0.0625,0 0.0793,0.0423 0.15393,0.10909 0.25,0.15625 0.0176,0.005 0.0488,0.02155 0.0625,0.03125 0.0842,0.0397 0.18298,0.05325 0.28125,0.09375 0.0269,0.0115 0.0334,0.02025 0.0625,0.03125 0.23576,0.093 0.49393,0.20104 0.78125,0.28125 0.0397,0.009 0.08446,0.01985 0.125,0.03125 0.1115,0.0291 0.22301,0.0374 0.34375,0.0625 0.0405,0.011 0.08231,0.02195 0.125,0.03125 0.15204,0.0291 0.30438,0.07385 0.46875,0.09375 0.0115,0 0.051,-0.008 0.0625,0 l 0,1.125 c -0.0538,0.008 -0.12934,0.02025 -0.1875,0.03125 -1.72261,0.28204 -2.83785,0.83527 -3.34375,2.375 -0.50414,1.54282 0.0043,2.10519 0.8125,3.1875 -0.68789,1.21671 -2.45663,1.67541 -0.125,4.375 -0.1657,1.01664 0.05008,2.63188 1.53125,3.125 0.48518,0.16393 0.88901,0.2367 1.3125,0.3125 l 0,20.21875 c -1.48067,0.78484 -2.22442,1.77573 -2.625,2.6875 0,0 -2.83064,-0.38004 -2.75,4.84375 1.34804,-1.0519 2.46875,-1.0625 2.46875,-1.0625 -1.83455,2.37745 -0.53125,4.5625 -0.53125,4.5625 1.58159,-1.58423 2.28125,-1.59375 2.28125,-1.59375 0,2.81197 1.15625,3.90625 1.15625,3.90625 0,-0.42382 0.02221,-0.80857 0.09375,-1.1875 -0.07154,0.37893 -0.09375,0.76368 -0.09375,1.1875 l 0,15.40625 -1.34375,0 0,1.96875 0,2.28125 2.34375,0 c -0.28688,0.11986 -0.54549,0.28102 -0.78125,0.46875 -0.81173,0.61783 -1.31077,1.57222 -1.28125,2.625 l 0,0.1875 c 0.16129,1.81867 1.83922,3.18813 3.75,3.03125 1.90505,-0.14895 3.31357,-1.74823 3.15625,-3.5625 -0.11149,-1.24976 -0.93172,-2.27936 -2.0625,-2.75 l 2.15625,0 0,-4.25 -1.28125,0 0,-13.6875 c 0.26882,0.13925 0.53747,0.25212 0.84375,0.3125 0.13132,0.03 0.2789,0.0479 0.40625,0.0625 0.056,8.8e-4 0.10029,-0.002 0.15625,0 -0.34769,-1.79621 0.71875,-2.96875 0.71875,-2.96875 0.55569,-0.83156 1.34661,-1.48008 2.25,-1.9375 2.71678,-1.36214 6.42471,-1.02779 7.53125,1.1875 7.01207,-1.84556 13.03125,-8.875 13.03125,-8.875 l 3.46875,5.84375 c -7.31922,2.44973 -23.250721,16.32206 -12.1875,21.125 -0.005,1.39255 -0.19921,11.75232 -6.84375,10.9375 -9.57196,-1.18454 -11.96219,2.7657 -10.125,7.21875 -0.86725,3.75942 2.03125,5.0625 2.03125,5.0625 -0.4323,-2.16637 0.60654,-3.95645 4.5625,-3.9375 -0.0212,3.95597 2.53125,4.6875 2.53125,4.6875 0.0137,-3.39278 2.37421,-4.66858 4.46875,-4.65625 -0.0137,2.79214 3.21875,3.875 3.21875,3.875 0,0 -0.82709,-3.23954 2.84375,-3.875 9.27936,-1.61728 0.570389,-11.14644 14.6875,-13.78125 0,0 -7.03125,-1.05957 -7.03125,-4.90625 0,-3.49193 6.34416,-5.875 8.53125,-5.875 0.002,0.005 0.0288,-0.005 0.0312,0 4.49236,8.54576 9.38066,8.62194 10.65625,8.6875 1.98834,2.21794 1.30984,9.71321 -1.5625,9.5625 -10.51502,-0.5601 -10.14669,5.84788 -8.96875,7.15625 -0.13088,2.48675 1.8125,3.90625 1.8125,3.90625 0,-2.66302 2.5339,-3.39017 5.78125,-3.21875 -0.17451,3.2478 1.90625,3.71875 1.90625,3.71875 0.0485,-3.27204 2.46533,-3.80953 4.1875,-3.71875 -0.1203,2.29814 2.15625,2.96875 2.15625,2.96875 0,0 -0.21808,-2.90272 2.84375,-2.90625 5.81387,0 -2.63047,-12.46386 8.71875,-24.78125 -9.96329,4.61434 -15.28125,-6.91192 -15.28125,-9.125 5.122,5.99498 21.75,7.17181 21.75,-3.0625 0,-8.25742 -7.66583,-12.14611 -7.03125,-15.40625 0.11634,-0.59888 0.50169,-1.16743 1.28125,-1.75 2.92874,-2.17695 8.68048,2.2185 5.40625,6.75 4.71482,-1.74905 7.34463,-6.32809 5.90625,-10.15625 -1.45115,-3.83126 -6.45113,-5.49513 -11.15625,-3.71875 -1.97115,0.74386 -3.56117,1.97709 -4.65625,3.4375 3.10369,-8.87305 15.78125,-10.74125 15.78125,-19 0,-13.836851 -19.67162,-9.96332 -16.8125,0 0,-0.14983 0.0129,-0.2934 0.0312,-0.4375 0.0278,-0.25832 0.0826,-0.488508 0.15625,-0.71875 1.10526,-3.453633 7.03125,-3.697272 7.03125,1.15625 0,5.34983 -12.5625,8.86442 -12.5625,17.90625 0,9.96329 9.97658,10.85994 8.96875,19.96875 -0.17054,1.57675 -1.86673,3.65625 -4.3125,3.65625 -5.2445,0 -8.05743,-2.22944 -9.6875,-5.375 -3.10986,-6.00776 -1.96712,-15.37527 -5.46875,-19.125 l 0.28125,-3.875 c 3.08474,1.89271 11.28076,-2.53006 5.90625,-9.28125 0,3.3236 -6.9375,3.11372 -6.9375,-3.15625 0,-8.48746 7.92691,-4.02869 8.3125,-2.15625 -0.38074,-3.08915 -0.52113,-5.06914 0,-6.84375 -4.28207,1.37536 -4.68903,-1.10314 -4.15625,-2.0625 0.62665,-1.10875 1.46144,-2.40625 3.125,-2.40625 2.40478,0 2.25148,0.88141 2.125,2.125 0.91837,-1.38902 1.17522,-2.40986 3.3125,-4.5 L 131,62.96875 l 1.25,0.4375 1.1875,-1.9375 c -1.28943,-2.67712 -3.04815,-1.36567 -4.34375,-4.6875 -1.07437,-0.28204 -15.2079,-1.60538 -14.71875,-8.3125 z m -3.09375,5.15625 c 0.0549,0.354649 0.17242,0.714582 0.375,1.03125 -0.20258,-0.316668 -0.32007,-0.676601 -0.375,-1.03125 z M 74.5,57.65625 c 1.31719,-0.10532 2.48138,0.83517 2.59375,2.09375 0.10929,1.25241 -0.86811,2.36431 -2.1875,2.46875 -1.32203,0.1062 -2.48843,-0.83649 -2.59375,-2.09375 -0.0291,-0.33359 0.01266,-0.64049 0.125,-0.9375 0,-0.007 -0.003,-0.02865 0,-0.03125 0.01282,-0.04488 0.04798,-0.08086 0.0625,-0.125 0.345121,-0.738999 1.092978,-1.301647 2,-1.375 z m 32.03125,1.3125 c 0.15765,0.263131 0.27252,0.564812 0.375,0.875 -0.10247,-0.310188 -0.21736,-0.611869 -0.375,-0.875 z m -9.21875,7.875 c 0.08195,0.48551 0.259948,0.916964 0.5,1.3125 -0.23966,-0.396001 -0.418905,-0.826357 -0.5,-1.3125 z m 5.1875,6.5 c -0.34084,0.922656 -0.82119,2.031034 -1.34375,3.15625 0.52256,-1.125189 1.00291,-2.233628 1.34375,-3.15625 z m 35.125,2.03125 c -0.57031,0.305483 -1.10666,0.710511 -1.53125,1.1875 0.4279,-0.484772 0.95341,-0.878532 1.53125,-1.1875 z m 6.65625,0.75 c 0.21656,0.238614 0.39583,0.513416 0.5625,0.8125 -0.16673,-0.299128 -0.34587,-0.573879 -0.5625,-0.8125 z M 77.0625,86.59375 c 0.90736,0.0873 3.25149,0.42863 6,1.5625 0.0317,0.0154 0.06645,0.01325 0.09375,0.03125 2.64319,1.50712 2.59042,4.53522 -0.8125,5.25 2.17078,4.16749 9.73347,2.14146 11.375,-1.25 0.80027,-0.0714 1.48641,1.36367 2.15625,2.71875 -1.05542,0.54997 -3.19551,1.62433 -7.8125,4.34375 -3.75678,2.21132 -6.29336,4.99852 -9.71875,6.21875 -0.52176,0.18905 -0.92342,0.23858 -1.28125,0.21875 l 0,-19.09375 z m 21.28125,0.21875 c -0.154039,0.435707 -0.355888,0.847938 -0.625,1.21875 0.269113,-0.370793 0.470961,-0.78306 0.625,-1.21875 z m -19.125,20.75 c -0.439362,0.0885 -0.814091,0.15625 -1.15625,0.15625 0.342159,0 0.716888,-0.0677 1.15625,-0.15625 z M 71,108.65625 c -0.0958,0.0691 -0.181329,0.17061 -0.25,0.25 0.07641,-0.0929 0.137239,-0.17088 0.25,-0.25 z m -2.75,2.21875 c -0.346071,0.38942 -0.659997,0.79684 -0.875,1.21875 0.211725,-0.41554 0.535553,-0.83395 0.875,-1.21875 z m 73.875,6.21875 c 0.0167,0.26224 0.0312,0.53803 0.0312,0.8125 0,0.13578 -0.0344,0.33066 -0.0625,0.5625 0.0281,-0.23183 0.0312,-0.42672 0.0312,-0.5625 0,-0.28499 0.018,-0.54067 0,-0.8125 z m -1.0625,4.09375 c -0.12096,0.16894 -0.25738,0.33785 -0.40625,0.5 0.14278,-0.15685 0.28945,-0.33689 0.40625,-0.5 z m -67.6875,17.875 c 0.147298,0 0.298638,0.0341 0.4375,0.0625 -0.138862,-0.0284 -0.290202,-0.0312 -0.4375,-0.0312 -0.13198,0 -0.25106,0.007 -0.375,0.0312 0.12394,-0.0247 0.24368,-0.0625 0.375,-0.0625 z"
       id="path3070"
       style="fill:#034694;fill-opacity:1" />
    <path
       d="m 122.31855,60.04546 1.70674,0.0899 -0.85403,1.17132 c -4.4e-4,0 -1.14004,0.36048 -0.85271,-1.26122 m -4.07143,0 h 2.45899 c 0,0 -0.0886,1.98437 1.70674,2.16197 l -0.38118,0.63193 c -4.5e-4,0 -4.82543,-1.26122 -3.78455,-2.7939 z"
       id="path3471"
       style="fill:#ffffff" />
    <path
       d="m 76.01343,76.99834 c 0.085,-0.31993 -2.8979,-2.06501 -4.52048,-2.48983 -0.68349,-0.17715 -1.2101,0.64471 -1.29515,0.96553 -0.0829,0.32213 -0.0269,1.29691 0.65441,1.47583 1.6239,0.42525 5.07837,0.36929 5.16122,0.0485 m -0.24458,2.97722 c 0.0251,-0.3023 -2.9499,-1.37227 -4.48478,-1.48728 -0.64251,-0.0472 -0.98095,0.78396 -1.00122,1.08362 -0.0216,0.30539 0.19037,1.17441 0.83376,1.2198 1.53224,0.11369 4.63285,-0.50898 4.65224,-0.81614 z m -3.3778,-8.97749 v 1.14048 c 0.43628,0.43671 2.02712,0.94922 2.20868,0.94922 v -2.25848 c 4.4e-4,4.4e-4 -1.196,0.25119 -2.20868,0.16878 z m -0.62267,11.1258 c -0.4658,0.0185 -0.64075,0.63634 -0.62929,0.85844 0.004,0.21946 0.22607,0.82627 0.6923,0.8082 1.10831,-0.0397 3.28129,-0.73725 3.27248,-0.95451 -0.009,-0.21813 -2.22675,-0.75047 -3.33549,-0.71213 z m -2.28271,30.10668 c -1.83455,2.37745 -0.51339,4.54603 -0.51339,4.54603 0,-1.65563 1.88874,-3.78675 2.31003,-4.20275 0,4.5e-4 -0.64692,-0.34328 -1.79664,-0.34328 z m 5.85308,5.044 c -0.28203,1.46657 0.44773,2.89481 1.71115,3.55142 0.26882,0.13925 0.56054,0.24942 0.86682,0.3098 0.13132,0.03 0.25427,0.0458 0.38162,0.0604 0.056,8.8e-4 0.11238,0.002 0.16834,0.004 0,0 -1.8579,-1.73936 -1.11095,-3.38353 -0.48474,-0.33271 -1.2079,-0.54247 -2.01698,-0.54247 z m -3.35753,-48.5235 c -2.782,-1.35772 -4.7602,-4.7602 -4.7602,-8.74966 0,-4.23359 2.2241,-7.81145 5.2802,-8.98278 -4.58833,1.01665 -7.82511,5.09424 -7.42013,9.69051 0.34329,3.89339 3.18786,7.00678 6.90013,8.04193 z m 29.536,-9.76498 c 2.95255,-0.55569 3.95421,2.06943 3.95421,3.00895 0,3.55892 -2.77187,4.99288 -5.06956,5.00654 v 0.002 c 10.65824,0 6.90234,-13.80292 1.11535,-8.01726 z m -7.124,30.62888 c 5.0938,0 4.75139,-6.65291 3.6497,-7.75549 1.63447,-1.63315 4.99773,-9.126 4.99773,-10.51017 0,0 -6.72298,-1.44983 -5.64949,-6.11529 -0.002,-0.003 -0.002,-0.005 -0.002,-0.009 l -0.0899,-0.0163 c -1.83233,1.93326 -0.7183,5.96546 2.18841,6.97153 0,0 -1.12196,4.43322 -3.89118,7.24431 C 92.8396,79.31748 88.9753,78.9548 85.5812,77.65568 c 5.24671,2.78465 10.64942,6.99312 8.81223,11.95956 z M 74.49441,57.67156 c 1.31719,-0.10532 2.47705,0.82847 2.58942,2.08705 0.10929,1.25241 -0.87166,2.35939 -2.19105,2.46383 -1.32203,0.1062 -2.4841,-0.82759 -2.58942,-2.08485 0,1.94868 1.58203,3.53248 3.53468,3.53248 0.0291,0 0.0582,-0.002 0.0877,-0.002 0.17495,0.86416 0.23488,1.78254 -0.0471,2.45501 1.90681,-1.65827 3.49281,-3.73254 3.49281,-5.98573 0,-1.95352 -1.586,-3.53688 -3.53335,-3.53688 -1.6261,0 -2.9878,1.09509 -3.40424,2.58282 0.30892,-0.8179 1.09068,-1.43353 2.06061,-1.51197 z m 37.53827,-2.5718 c -2.30342,-2.30739 1.10082,-6.61986 2.35146,-6.61986 -1.36786,0 -7.29895,3.88325 -5.28549,6.61986 1.11095,0 2.93403,0 2.93403,0 z M 82.35522,93.44095 c 1.82706,0.56098 3.66424,-0.12295 4.09214,-1.52695 0.4279,-1.40664 -0.71214,-2.99529 -2.54271,-3.55803 -0.25251,-0.0754 -0.50766,-0.12956 -0.75885,-0.16041 2.64319,1.50712 2.61234,4.53061 -0.79058,5.24539 z M 77.05475,74.02644 c 0,0 2.61851,0.82848 5.83986,2.30034 -0.64691,-0.40102 -1.25372,-0.85315 -1.79884,-1.36654 -1.63536,-1.54546 -2.93624,-2.3876 -4.04102,-2.81549 v 1.88169 l 0,0 z m 0.99329,33.6797 c 5.47454,0 24.40298,-12.08516 24.40298,-12.08516 -4.67515,0 -6.56346,-0.72315 -6.56346,-0.72315 -1.05542,0.54997 -3.22135,1.63668 -7.83834,4.3561 -3.75678,2.21132 -6.27481,5.00743 -9.7002,6.22766 -0.52176,0.18905 -0.93644,0.23312 -1.29427,0.21329 -0.78837,-0.0679 -1.65563,-0.17495 -2.45502,-0.22254 V 88.09156 c 0,-1.82264 -1.33084,-2.55549 -2.20868,-2.55549 v 20.22668 c -1.48067,0.78484 -2.20911,1.76006 -2.60969,2.67183 0,0 -2.82254,-0.37634 -2.7419,4.84745 0,-1.38549 2.05576,-3.80833 3.48136,-3.80833 0,-1.76756 5.1881,-1.76756 7.52722,-1.76756 z m 47.21512,27.98084 c -1.38638,0 -7.74888,0.26926 -8.32044,-5.27271 -1.40621,-0.30186 -3.04773,-0.36268 -4.77167,-0.11766 4.498,8.58441 9.38072,8.65315 10.65824,8.71881 1.98834,2.21794 1.32204,9.7077 -1.5503,9.55699 -10.51502,-0.5601 -10.12943,5.83722 -8.95149,7.14559 0,-4.82366 3.27908,-5.96722 11.5625,-5.96722 4.4e-4,0 6.77102,-8.66549 1.37316,-14.0638 z m 2.1624,20.71319 h -1.42339 c -0.1203,2.29814 2.15448,2.97458 2.15448,2.97458 -0.73109,-0.73065 -1.26387,-2.43695 -0.73109,-2.97458 z m -13.30583,3.23546 c -0.60505,-0.60593 -1.10345,-3.03407 -0.22474,-3.91763 h -1.56794 c -0.13088,2.48675 1.79268,3.91763 1.79268,3.91763 z M 145.5079,79.77024 c 0,-7.34346 -10.07125,-6.18977 -10.56834,-0.55085 0.44421,-4.13312 7.17292,-4.74302 7.17292,0.43407 0,5.34983 -12.54919,8.85454 -12.54919,17.89637 0,9.96329 9.96241,10.88519 8.95458,19.994 -0.17054,1.57675 -1.8601,3.63736 -4.30587,3.63736 -5.2445,0 -8.05162,-2.22587 -9.68169,-5.37143 1.66708,4.45305 4.60112,7.86655 10.70715,7.86655 6.32682,0 6.90102,-4.67648 6.90102,-5.76275 0,-9.11983 -9.52481,-11.28797 -9.52481,-19.95522 8.8e-4,-8.43942 12.89423,-11.91593 12.89423,-18.1881 z m -74.26393,35.42918 c 0,2.81197 1.14708,3.90265 1.14708,3.90265 0,-1.69529 0.69672,-3.12837 1.09509,-3.52366 -0.58875,-0.59271 -2.24217,-0.37899 -2.24217,-0.37899 z m 72.77136,-15.54227 c -2.55638,0 -4.6496,1.95617 -4.86994,4.45173 0.11634,-0.59888 0.5156,-1.18102 1.29516,-1.76359 2.92874,-2.17695 8.66901,2.20779 5.39478,6.73929 1.79972,-0.72272 3.06403,-2.47882 3.06403,-4.53678 0.001,-2.69872 -2.18576,-4.89065 -4.88403,-4.89065 z m -22.40407,56.74302 h -1.70763 c -0.17451,3.2478 1.90373,3.73651 1.90373,3.73651 -0.8818,-0.87915 -1.02898,-2.90451 -0.1961,-3.73651 z M 73.372,139.07844 c -0.26396,0 -0.5103,0.0542 -0.74518,0.14366 -0.81173,0.61783 -1.30661,1.57763 -1.27709,2.63041 0.27058,0.86593 1.06821,1.49169 2.02227,1.49169 1.17838,0 2.13244,-0.9545 2.13244,-2.132 0,-1.17925 -0.95406,-2.13376 -2.13244,-2.13376 z m 11.9957,15.77142 h -2.46824 c -0.0212,3.95597 2.53743,4.67339 2.53743,4.67339 -0.72139,-0.72623 -1.63712,-3.10633 -0.0692,-4.67339 z m 7.65413,-25.01684 c 0,-9.04844 21.67078,-10.11048 21.67078,-17.56499 0,-3.03583 -2.62071,-4.40678 -4.48389,-4.40678 0.52749,0.52838 3.34606,6.58946 -4.74787,6.58946 -7.31922,2.44973 -23.25766,16.30421 -12.19444,21.10715 -0.005,1.39255 -0.19258,11.76082 -6.83712,10.946 -9.57196,-1.18454 -11.96,2.77231 -10.12281,7.22536 0,-6.75647 4.74478,-5.50142 10.94115,-5.50142 3.87488,0 9.5398,-4.90034 9.5398,-13.15072 0,0 -3.7656,-1.44498 -3.7656,-5.24406 z m -18.42166,5.54549 v -18.16915 c -1.22817,0 -2.20867,1.89359 -2.20867,1.89359 v 15.50129 -0.0992 l -1.34231,0.004 0.0115,1.95705 c 1.03251,-4.4e-4 3.53952,-0.53322 3.53952,-1.08803 z m 3.7299,23.41234 c 0,0 -1.91563,-3.00983 0.13705,-5.06163 h -2.1602 c -0.86725,3.75942 2.02315,5.06163 2.02315,5.06163 z m 13.35915,-3.90177 c 0,0 -1.03162,0 -1.79135,0 -0.0137,2.79214 3.23017,3.84933 3.23017,3.84933 -1.14312,-1.13783 -1.92621,-3.36899 -1.43882,-3.84933 z"
       id="path3473"
       style="fill:#6a7ab5;fill-opacity:1" />
    <line
       style="fill:none"
       id="line3475"
       y2="83.968102"
       x2="179.75519"
       y1="83.968102"
       x1="179.75519" />
    <path
       d="m 31.43092,124.72421 -0.11942,-0.36665 -0.0511,-0.38162 c -0.17495,-1.30661 -0.49092,-3.74048 -2.36997,-4.17587 -0.50237,-0.11678 -1.02149,-0.0568 -1.57542,0.17098 0.15071,-0.57816 0.13308,-1.10169 -0.0485,-1.58159 -0.69274,-1.80149 -3.14512,-1.77857 -4.46274,-1.76139 h -0.38736 l -0.38163,-0.0705 c -1.29427,-0.2384 -3.70874,-0.68922 -4.69939,0.96421 -0.26617,0.44156 -0.37193,0.95274 -0.32654,1.5481 -0.50149,-0.32346 -1.00695,-0.46844 -1.51681,-0.44376 -1.92841,0.10267 -2.66566,2.44267 -3.06007,3.70213 l -0.1203,0.36576 -0.17892,0.33977 c -0.63193,1.1603 -1.8037,3.31125 -0.53807,4.76813 0.338,0.38912 0.79278,0.65 1.3736,0.78749 -0.45919,0.38031 -0.75577,0.81526 -0.88533,1.31278 -0.50369,1.86055 1.4961,3.2835 2.56695,4.04587 l 0.31421,0.23179 0.27057,0.27367 c 0.90736,0.96023 2.59339,2.73705 4.36888,1.98481 0.46977,-0.20227 0.85933,-0.55261 1.17133,-1.06159 0.2221,0.55525 0.54159,0.96684 0.97213,1.25064 1.61729,1.04749 3.58668,-0.41203 4.64607,-1.19115 l 0.31332,-0.2296 0.3477,-0.17054 c 1.18983,-0.56979 3.40644,-1.62169 3.23898,-3.54349 -0.0445,-0.51559 -0.26,-0.98888 -0.64559,-1.44234 0.59359,-0.0352 1.0845,-0.21505 1.48288,-0.53807 1.50183,-1.21318 0.72006,-3.53776 0.30054,-4.78796"
       id="path3477"
       style="fill:#ffffff" />
    <path
       d="m 22.98312,126.28289 c 10.78868,6.37661 7.46597,-0.63546 7.22888,-1.67238 -0.23884,-1.03339 -0.32962,-8.78976 -7.22888,1.67238"
       id="path3479"
       style="fill:#ed1c24" />
    <path
       d="m 22.30492,127.87902 c -2.73044,12.22617 2.91156,6.90366 3.82156,6.36163 0.90956,-0.54688 8.2583,-3.03231 -3.82156,-6.36163"
       id="path3481"
       style="fill:#ed1c24" />
    <path
       d="m 20.57261,127.73095 c -12.47647,1.17749 -5.66667,4.90078 -4.86684,5.59617 0.80203,0.69319 5.43223,6.91777 4.86684,-5.59617"
       id="path3483"
       style="fill:#ed1c24" />
    <path
       d="m 20.18129,126.03302 c -4.97966,-11.49949 -6.41583,-3.874 -6.83051,-2.89437 -0.41467,0.97125 -4.90386,7.30247 6.83051,2.89437"
       id="path3485"
       style="fill:#ed1c24" />
    <path
       d="m 198.3875,123.03465 -0.17804,-0.33976 -0.12207,-0.36577 c -0.3944,-1.2599 -1.13166,-3.59945 -3.05478,-3.70257 -0.51559,-0.0242 -1.0184,0.11942 -1.51989,0.43979 0.0458,-0.59139 -0.0661,-1.10257 -0.32522,-1.54413 -0.99506,-1.65431 -3.406,-1.20305 -4.70028,-0.96465 l -0.38559,0.0705 h -0.38559 c -1.31278,-0.0172 -3.76736,-0.0397 -4.45746,1.76183 -0.18773,0.47946 -0.20139,1.00343 -0.0542,1.58115 -0.54556,-0.22738 -1.06556,-0.28644 -1.57146,-0.17054 -1.87729,0.43451 -2.19987,2.86882 -2.366,4.17543 l -0.0577,0.38206 -0.11634,0.36665 c -0.42173,1.24976 -1.20085,3.57434 0.30054,4.78885 0.39838,0.32257 0.88577,0.50281 1.48289,0.53806 -0.3856,0.45346 -0.60065,0.92719 -0.6456,1.44234 -0.16613,1.9218 2.04695,2.9737 3.23899,3.54349 l 0.34416,0.17055 0.31333,0.22959 c 1.06291,0.78 3.03406,2.23864 4.64606,1.19115 0.43628,-0.28379 0.75312,-0.69539 0.97258,-1.25064 0.3142,0.50898 0.6998,0.85932 1.17397,1.06203 1.77461,0.7518 3.4624,-1.02502 4.36888,-1.98525 l 0.27278,-0.27322 0.30979,-0.23224 c 1.07438,-0.76193 3.07285,-2.18532 2.57092,-4.04542 -0.13441,-0.49885 -0.42525,-0.93292 -0.88753,-1.31322 0.57861,-0.13794 1.03472,-0.39838 1.37095,-0.7875 1.26783,-1.45732 0.0978,-3.60783 -0.53806,-4.76857"
       id="path3487"
       style="fill:#ffffff" />
    <path
       d="m 188.8499,125.14109 c -9.39525,-8.28871 -1.70234,-7.29939 -0.64471,-7.39237 1.05278,-0.0886 8.4619,-2.40214 0.64471,7.39237"
       id="path3489"
       style="fill:#ed1c24" />
    <path
       d="m 187.54197,126.28289 c -10.78868,6.37661 -7.47258,-0.63546 -7.23064,-1.67238 0.23664,-1.03339 0.3261,-8.78976 7.23064,1.67238"
       id="path3491"
       style="fill:#ed1c24" />
    <path
       d="m 188.21753,127.87902 c 2.73176,12.22617 -2.91068,6.90366 -3.82244,6.36163 -0.90868,-0.54688 -8.25478,-3.03231 3.82244,-6.36163"
       id="path3493"
       style="fill:#ed1c24" />
    <path
       d="m 189.94763,127.73095 c 12.47692,1.17749 5.67197,4.90078 4.86905,5.59617 -0.79718,0.69319 -5.434,6.91777 -4.86905,-5.59617"
       id="path3495"
       style="fill:#ed1c24" />
    <path
       d="m 190.33631,126.03302 c 4.98274,-11.49949 6.41583,-3.874 6.83227,-2.89437 0.41247,0.97125 4.90166,7.30247 -6.83227,2.89437"
       id="path3497"
       style="fill:#ed1c24" />
    <path
       d="m 192.76004,126.39173 c -0.0119,-0.10003 -0.0441,-0.18949 -0.0577,-0.28644 1.00166,-0.73593 2.08397,-1.5243 2.08397,-1.5243 l -0.104,-0.23312 c 0,0 -1.26255,0.22034 -2.47353,0.43142 -0.6077,-0.99593 -1.64373,-1.67149 -2.83003,-1.78695 -0.37678,-1.13254 -0.75312,-2.28623 -0.75312,-2.28623 l -0.25383,0.0216 c 0,0 -0.17055,1.20217 -0.34241,2.37966 -0.72888,0.19698 -1.38329,0.60946 -1.88081,1.19997 -0.26529,0.31817 -0.45699,0.6782 -0.60946,1.0541 -1.2198,0 -2.50878,0.004 -2.50878,0.004 l -0.0542,0.25119 c 0,0 1.20172,0.58566 2.31179,1.12902 0.004,0.10135 -0.009,0.20139 0,0.30363 0.0851,0.97786 0.54292,1.85569 1.28149,2.496 -0.39,1.21891 -0.82891,2.58105 -0.82891,2.58105 l 0.21505,0.13 c 0,0 1.01224,-1.04838 1.91342,-1.9738 0.47065,0.15468 0.9717,0.21549 1.47804,0.17054 0.5103,-0.0388 0.99417,-0.19169 1.43308,-0.41952 1.04485,0.75223 2.22322,1.6045 2.22322,1.6045 l 0.19302,-0.16613 c 0,0 -0.66807,-1.26254 -1.26342,-2.39288 0.61739,-0.76238 0.90823,-1.71204 0.82715,-2.6877"
       id="path3499"
       style="fill:#ffffff" />
    <path
       d="m 188.83095,124.51444 c -0.59139,0.0458 -1.12417,0.32523 -1.50447,0.78221 -0.38031,0.45302 -0.56451,1.02546 -0.51031,1.61376 0.10312,1.21803 1.1819,2.12363 2.39641,2.0161 0.5958,-0.0542 1.12417,-0.33227 1.50976,-0.78352 0.37678,-0.45699 0.5601,-1.0259 0.51031,-1.61817 -0.10621,-1.21848 -1.18631,-2.12054 -2.4017,-2.01038"
       id="path3501"
       style="fill:#ed1c24" />
    <path
       d="m 21.67255,125.14109 c 9.39834,-8.28871 1.70101,-7.29939 0.64647,-7.39237 -1.05807,-0.0886 -8.46586,-2.40214 -0.64647,7.39237"
       id="path3503"
       style="fill:#ed1c24" />
    <path
       d="m 25.23058,126.7456 c 1.118,-0.54292 2.314,-1.12946 2.314,-1.12946 l -0.056,-0.25119 c 0,0 -1.28633,-0.004 -2.50922,-0.004 -0.14806,-0.37546 -0.34064,-0.73594 -0.60725,-1.05366 -0.49709,-0.59051 -1.15105,-1.00255 -1.8817,-1.20041 -0.16745,-1.17837 -0.338,-2.37922 -0.338,-2.37922 l -0.25823,-0.0216 c 0,0 -0.37414,1.15281 -0.74519,2.28623 -1.1938,0.11546 -2.23115,0.79102 -2.83797,1.78695 -1.20613,-0.21108 -2.47616,-0.43142 -2.47616,-0.43142 l -0.0978,0.23312 c 0,0 1.07967,0.78837 2.08089,1.5243 -0.0163,0.0974 -0.0454,0.18685 -0.056,0.286 -0.0828,0.98095 0.21461,1.92532 0.83112,2.6877 -0.6002,1.12945 -1.26827,2.39288 -1.26827,2.39288 l 0.19786,0.16613 c 0,0 1.17617,-0.85227 2.22014,-1.60451 0.43891,0.22916 0.92234,0.37634 1.43132,0.41953 0.5103,0.0458 1.01003,-0.0159 1.48068,-0.17054 0.89854,0.92586 1.90946,1.97379 1.90946,1.97379 l 0.22166,-0.13 c 0,0 -0.4398,-1.36301 -0.832,-2.57752 0.73725,-0.64471 1.19467,-1.52254 1.28149,-2.50041 0.0106,-0.10135 -0.005,-0.20095 -0.005,-0.3023"
       id="path3505"
       style="fill:#ffffff" />
    <path
       d="m 23.19685,125.29709 c -0.38163,-0.45698 -0.91176,-0.73726 -1.5058,-0.7822 -1.21406,-0.11017 -2.29416,0.79189 -2.39993,2.01081 -0.0502,0.59227 0.13265,1.16119 0.50943,1.61817 0.38074,0.45125 0.91617,0.72932 1.50712,0.78352 1.21406,0.10753 2.29372,-0.7985 2.39905,-2.0161 0.0498,-0.58874 -0.13177,-1.16118 -0.50987,-1.6142"
       id="path3507"
       style="fill:#ed1c24" />
    <path
       d="m 23.04614,73.00272 c -5.25244,-0.92763 -10.2819,2.59823 -11.20997,7.85067 -0.92674,5.25597 2.59516,10.28499 7.84804,11.21261 5.25729,0.92719 10.28895,-2.59691 11.21393,-7.852 0.92983,-5.25332 -2.59427,-10.28233 -7.852,-11.21128"
       id="path3509"
       style="fill:#ffffff" />
    <path
       d="m 25.23719,80.32326 c -0.085,-0.052 -0.23312,-0.14807 -0.41247,-0.26661 -0.79367,-0.52617 -2.3497,-1.55515 -2.39244,-1.586 -0.2155,-0.14807 -0.42526,-0.28909 -0.63194,-0.42834 -0.69186,-0.46359 -1.31057,-0.86681 -1.89227,-1.20261 -0.2243,-0.12736 -0.44112,-0.24634 -0.65925,-0.35298 -0.92499,-0.46668 -1.81163,-0.74872 -2.85824,-0.84082 -0.80688,0.58258 -1.50712,1.30397 -2.07427,2.13773 2.40654,0.86902 4.75624,2.26068 9.64864,5.29959 0.27983,-0.64691 1.21627,-2.63878 1.27224,-2.75996"
       id="path3511"
       style="fill:#ed1c24" />
    <path
       d="m 22.98136,85.51092 c 0.0978,-0.2437 0.52793,-1.33217 0.70376,-1.75125 -5.01359,-3.11428 -7.34169,-4.49228 -9.75352,-5.34499 -0.37414,0.6716 -0.65441,1.40444 -0.83729,2.18444 1.37668,1.89007 5.06603,3.74709 9.88705,4.9118"
       id="path3513"
       style="fill:#ed1c24" />
    <path
       d="m 22.43844,77.59678 c 1.87729,-1.1105 4.01017,-0.8082 5.65655,-0.24634 -0.61387,-0.79277 -1.35729,-1.48552 -2.2219,-2.02491 -1.55515,-0.30936 -3.70302,-0.35783 -5.41285,1.00122 0.6218,0.36532 1.26387,0.79146 1.9782,1.27003"
       id="path3515"
       style="fill:#ed1c24" />
    <path
       d="m 14.9478,86.56634 c 0.25119,0.17231 0.50854,0.33624 0.7822,0.49004 0.55261,0.30539 1.15105,0.56935 1.76933,0.79542 0.2622,0.0992 0.52881,0.19125 0.79762,0.27807 0.94041,0.30935 3.09841,0.8699 3.25926,0.90735 0.0331,-0.0828 0.84169,-2.08264 1.1484,-2.84237 -3.73783,-0.92718 -7.83084,-2.54976 -9.77556,-4.65973 -0.11677,0.97434 -0.0714,1.9381 0.13441,2.85207 0.41027,0.8937 1.06909,1.60583 1.88434,2.17915"
       id="path3517"
       style="fill:#ed1c24" />
    <path
       d="m 21.68224,89.81855 -0.78,-0.20095 c -0.72315,-0.18377 -1.50712,-0.38956 -2.3043,-0.63414 0.38867,0.82848 1.00034,1.47407 1.65254,1.9738 0.87386,0.1159 1.73627,0.0939 2.56519,-0.0494 -0.59889,-0.46579 -1.13343,-1.08935 -1.13343,-1.08935"
       id="path3519"
       style="fill:#ed1c24" />
    <path
       d="m 29.49987,80.06634 c -0.17759,-0.58037 -0.41071,-1.14267 -0.70376,-1.66664 -1.47363,-0.65705 -3.718,-1.29912 -5.67814,-0.3402 l 2.70356,1.78518 c 0.56363,-0.0502 1.0823,-0.0657 1.55691,-0.0542 0.25912,0.004 0.49973,0.0181 0.72977,0.0405 0.52925,0.0467 0.98095,0.13176 1.39166,0.23532"
       id="path3521"
       style="fill:#ed1c24" />
    <path
       d="m 28.1157,80.56078 c -0.0789,4.44292 -2.17342,7.86963 -3.97844,10.01353 2.82518,-0.98183 5.05325,-3.41658 5.60895,-6.5617 0.19037,-1.07481 0.15688,-2.132 -0.0423,-3.13806 -0.43891,-0.13661 -0.96376,-0.25075 -1.5882,-0.31377"
       id="path3523"
       style="fill:#ed1c24" />
    <path
       d="m 19.78512,75.95041 c 1.26519,-1.11536 2.75953,-1.49213 4.13753,-1.52298 -0.3499,-0.11193 -0.70641,-0.20844 -1.0779,-0.27146 -1.96498,-0.34681 -3.88722,0.0185 -5.51993,0.90295 0.86946,0.1701 1.65518,0.47505 2.4603,0.89149"
       id="path3525"
       style="fill:#ed1c24" />
    <path
       d="m 25.92465,80.56519 c -0.64295,1.33922 -1.02105,2.15932 -1.33482,2.90539 -0.0965,0.22607 -0.19037,0.44553 -0.28511,0.6738 -0.14983,0.37413 -0.61167,1.53708 -0.61167,1.53708 l -0.27542,0.68261 -1.1938,2.95739 c 0.32919,0.43671 0.728,0.79278 1.12021,1.07085 1.77373,-2.02315 3.98108,-5.42342 4.04851,-9.87427 -0.44641,-0.0159 -0.93733,4.4e-4 -1.4679,0.0471"
       id="path3527"
       style="fill:#ed1c24" />
    <path
       d="m 17.70336,88.68953 c -0.59536,-0.20492 -1.18983,-0.43848 -1.75125,-0.71214 0.20976,0.6478 0.51206,1.22289 0.81657,1.71644 0.63678,0.40851 1.3357,0.73065 2.08176,0.96068 -0.48342,-0.54468 -0.90074,-1.18895 -1.14708,-1.96498"
       id="path3529"
       style="fill:#ed1c24" />
    <path
       d="m 15.07604,87.49882 c -0.40366,-0.24193 -0.77912,-0.51119 -1.12682,-0.80688 0.39353,0.70376 0.88929,1.34891 1.46438,1.91474 -0.13661,-0.35298 -0.25648,-0.7183 -0.33756,-1.10786"
       id="path3531"
       style="fill:#ed1c24" />
    <path
       d="m 178.57505,84.21444 c 0.92851,5.25509 5.95621,8.77919 11.21041,7.852 5.25553,-0.92718 8.77654,-5.95664 7.85376,-11.21261 -0.92762,-5.25244 -5.95796,-8.7783 -11.21393,-7.85067 -5.25508,0.92851 -8.77654,5.95752 -7.85024,11.21128"
       id="path3533"
       style="fill:#ffffff" />
    <path
       d="m 184.23512,80.32326 c 0.0833,-0.052 0.23224,-0.14807 0.41556,-0.26661 0.79454,-0.52617 2.34793,-1.55515 2.3876,-1.586 0.22033,-0.14807 0.43054,-0.28909 0.63677,-0.42834 0.68438,-0.46359 1.30838,-0.86681 1.89095,-1.20261 0.22387,-0.12736 0.44333,-0.24634 0.6575,-0.35298 0.92278,-0.46668 1.81427,-0.74872 2.85911,-0.84082 0.80644,0.58258 1.50977,1.30397 2.06899,2.13773 -2.40478,0.86902 -4.74743,2.26068 -9.646,5.29959 -0.28071,-0.64691 -1.21275,-2.63878 -1.27048,-2.75996"
       id="path3535"
       style="fill:#ed1c24" />
    <path
       d="m 186.49272,85.51092 c -0.0992,-0.2437 -0.53278,-1.33217 -0.69892,-1.75125 5.0039,-3.11428 7.33905,-4.49228 9.74912,-5.34499 0.37193,0.6716 0.65397,1.40444 0.83729,2.18444 -1.37888,1.89007 -5.0678,3.74709 -9.88749,4.9118"
       id="path3537"
       style="fill:#ed1c24" />
    <path
       d="m 187.03563,77.59678 c -1.87905,-1.1105 -4.01017,-0.8082 -5.65919,-0.24634 0.61475,-0.79277 1.36258,-1.48552 2.22675,-2.02491 1.55339,-0.30936 3.69993,-0.35783 5.40756,1.00122 -0.61695,0.36532 -1.26342,0.79146 -1.97512,1.27003"
       id="path3539"
       style="fill:#ed1c24" />
    <path
       d="m 194.52143,86.56634 c -0.24546,0.17231 -0.50193,0.33624 -0.78044,0.49004 -0.54997,0.30539 -1.14753,0.56935 -1.76448,0.79542 -0.2644,0.0992 -0.53278,0.19125 -0.80115,0.27807 -0.93556,0.30935 -3.09576,0.8699 -3.25793,0.90735 -0.0361,-0.0828 -0.84699,-2.08264 -1.14753,-2.84237 3.73651,-0.92718 7.82644,-2.54976 9.77688,-4.65973 0.11634,0.97434 0.0661,1.9381 -0.13617,2.85207 -0.41159,0.8937 -1.06908,1.60583 -1.88918,2.17915"
       id="path3541"
       style="fill:#ed1c24" />
    <path
       d="m 187.79316,89.81855 0.77471,-0.20095 c 0.72535,-0.18377 1.51417,-0.38956 2.3118,-0.63414 -0.39441,0.82848 -1.00343,1.47407 -1.65431,1.9738 -0.87254,0.1159 -1.73759,0.0939 -2.5621,-0.0494 0.59183,-0.46579 1.1299,-1.08935 1.1299,-1.08935"
       id="path3543"
       style="fill:#ed1c24" />
    <path
       d="m 179.97377,80.06634 c 0.17891,-0.58037 0.40806,-1.14267 0.70817,-1.66664 1.46922,-0.65705 3.70874,-1.29912 5.6702,-0.3402 l -2.70092,1.78518 c -0.5645,-0.0502 -1.08274,-0.0657 -1.55867,-0.0542 -0.2556,0.004 -0.49753,0.0181 -0.73065,0.0405 -0.52837,0.0467 -0.97522,0.13176 -1.38813,0.23532"
       id="path3545"
       style="fill:#ed1c24" />
    <path
       d="m 181.35838,80.56078 c 0.0767,4.44292 2.17651,7.86963 3.98329,10.01353 -2.83268,-0.98183 -5.06339,-3.41658 -5.61336,-6.5617 -0.18861,-1.07481 -0.16173,-2.132 0.0441,-3.13806 0.43539,-0.13661 0.96376,-0.25075 1.586,-0.31377"
       id="path3547"
       style="fill:#ed1c24" />
    <path
       d="m 189.69116,75.95041 c -1.26607,-1.11536 -2.76349,-1.49213 -4.13929,-1.52298 0.34857,-0.11193 0.70332,-0.20844 1.07834,-0.27146 1.96322,-0.34681 3.88501,0.0185 5.51729,0.90295 -0.86594,0.1701 -1.65343,0.47505 -2.45634,0.89149"
       id="path3549"
       style="fill:#ed1c24" />
    <path
       d="m 183.54987,80.56519 c 0.64471,1.33922 1.01576,2.15932 1.3401,2.90539 0.093,0.22607 0.18244,0.44553 0.27719,0.6738 0.15247,0.37413 0.61386,1.53708 0.61386,1.53708 l 0.27366,0.68261 1.19644,2.95739 c -0.33139,0.43671 -0.72712,0.79278 -1.12064,1.07085 -1.77285,-2.02315 -3.98417,-5.42342 -4.04631,-9.87427 0.44421,-0.0159 0.93733,4.4e-4 1.4657,0.0471"
       id="path3551"
       style="fill:#ed1c24" />
    <path
       d="m 191.77116,88.68953 c 0.59579,-0.20492 1.18586,-0.43848 1.75257,-0.71214 -0.21593,0.6478 -0.51206,1.22289 -0.82098,1.71644 -0.6359,0.40851 -1.33481,0.73065 -2.0778,0.96068 0.48255,-0.54468 0.89943,-1.18895 1.14621,-1.96498"
       id="path3553"
       style="fill:#ed1c24" />
    <path
       d="m 194.40068,87.49882 c 0.39837,-0.24193 0.77471,-0.51119 1.12417,-0.80688 -0.39441,0.70376 -0.88664,1.34891 -1.46393,1.91474 0.13397,-0.35298 0.25471,-0.7183 0.33976,-1.10786"
       id="path3555"
       style="fill:#ed1c24" />
  </g>
</svg>
