<svg id="Capa_1" enable-background="new 0 0 512 512" height="512" viewBox="0 0 512 512" width="512" xmlns="http://www.w3.org/2000/svg" xmlns:xlink="http://www.w3.org/1999/xlink"><linearGradient id="SVGID_1_" gradientUnits="userSpaceOnUse" x1="230" x2="230" y1="512" y2="42"><stop offset="0" stop-color="#a93aff"/><stop offset="1" stop-color="#ff81ff"/></linearGradient><linearGradient id="SVGID_2_" gradientUnits="userSpaceOnUse" x1="346.5" x2="346.5" y1="507.607" y2="0"><stop offset="0" stop-color="#ffbef9"/><stop offset="1" stop-color="#fff1ff"/></linearGradient><g><g><g><path d="m460 42h-242.667l-21.333 139h-181c-8.284 0-15 6.715-15 15v301c0 8.284 6.715 15 15 15h301c4.142 0 7.892-1.679 10.606-4.393l-77.341-203.41h210.735z" fill="url(#SVGID_1_)"/></g></g><g><g><path d="m497 0h-301c-8.284 0-15 6.716-15 15v310.614c0 3.482 1.211 6.855 3.426 9.542l142.18 172.451c2.715-2.715 4.394-6.465 4.394-10.607v-166h166c8.284 0 15-6.716 15-15v-301c0-8.284-6.716-15-15-15zm-91 271h-119.576c-8.077 0-15.027-6.207-15.407-14.275-.406-8.614 6.458-15.725 14.983-15.725h119.576c8.077 0 15.027 6.207 15.407 14.275.406 8.614-6.458 15.725-14.983 15.725zm-59.292-60.003c-40.502.376-74.358-32.023-75.667-72.505-1.377-42.559 32.667-78.492 74.959-78.492 41.458 0 75 34.535 75 76 0 41.119-33.261 74.615-74.292 74.997z" fill="url(#SVGID_2_)"/></g></g></g></svg>